<svg xmlns="http://www.w3.org/2000/svg" xmlns:xlink="http://www.w3.org/1999/xlink" viewBox="0 0 1000 280" width="1000" height="280" role="img" aria-label="白日梦想家 — The Secret Life of PathGao">
  <title>白日梦想家 — 从夜晚的城市骑向白天的旷野</title>

  <defs>
    <!-- 昼夜循环：一律 userSpaceOnUse，让色带横贯整幅画而不是各图形各算各的 -->
    <linearGradient id="sky" gradientUnits="userSpaceOnUse" x1="0" y1="0" x2="1000" y2="0">
      <stop offset="0%"   stop-color="#0f1631"/>
      <stop offset="17%"  stop-color="#1d2446"/>
      <stop offset="31%"  stop-color="#453e6a"/>
      <stop offset="43%"  stop-color="#8d5f76"/>
      <stop offset="54%"  stop-color="#d98a63"/>
      <stop offset="64%"  stop-color="#f2bc80"/>
      <stop offset="77%"  stop-color="#93cfef"/>
      <stop offset="100%" stop-color="#e2f4fc"/>
    </linearGradient>

    <linearGradient id="zenith" gradientUnits="userSpaceOnUse" x1="0" y1="34" x2="0" y2="176">
      <stop offset="0%"   stop-color="#050a1c" stop-opacity=".34"/>
      <stop offset="100%" stop-color="#050a1c" stop-opacity="0"/>
    </linearGradient>

    <linearGradient id="ridgeFar" gradientUnits="userSpaceOnUse" x1="0" y1="0" x2="1000" y2="0">
      <stop offset="0%"   stop-color="#2a3054"/>
      <stop offset="35%"  stop-color="#4b4573"/>
      <stop offset="60%"  stop-color="#9a7f92"/>
      <stop offset="80%"  stop-color="#8fb0c6"/>
      <stop offset="100%" stop-color="#a6c8d6"/>
    </linearGradient>

    <linearGradient id="ridgeNear" gradientUnits="userSpaceOnUse" x1="0" y1="0" x2="1000" y2="0">
      <stop offset="0%"   stop-color="#141a2f"/>
      <stop offset="34%"  stop-color="#2c2d4c"/>
      <stop offset="52%"  stop-color="#4a4553"/>
      <stop offset="70%"  stop-color="#528251"/>
      <stop offset="100%" stop-color="#6dbb64"/>
    </linearGradient>

    <linearGradient id="riverG" gradientUnits="userSpaceOnUse" x1="0" y1="0" x2="1000" y2="0">
      <stop offset="0%"   stop-color="#0d1226"/>
      <stop offset="30%"  stop-color="#1a2340"/>
      <stop offset="52%"  stop-color="#5a4a58"/>
      <stop offset="72%"  stop-color="#4e88a4"/>
      <stop offset="100%" stop-color="#77b6cc"/>
    </linearGradient>

    <linearGradient id="bankG" gradientUnits="userSpaceOnUse" x1="0" y1="0" x2="1000" y2="0">
      <stop offset="0%"   stop-color="#080d1a"/>
      <stop offset="34%"  stop-color="#131a2c"/>
      <stop offset="55%"  stop-color="#2a3630"/>
      <stop offset="74%"  stop-color="#43804a"/>
      <stop offset="100%" stop-color="#66bd5f"/>
    </linearGradient>

    <linearGradient id="scrim" gradientUnits="userSpaceOnUse" x1="0" y1="0" x2="560" y2="0">
      <stop offset="0%"   stop-color="#080d20" stop-opacity=".32"/>
      <stop offset="100%" stop-color="#080d20" stop-opacity="0"/>
    </linearGradient>

    <radialGradient id="lampGlow"><stop offset="0%" stop-color="#ffd9a0" stop-opacity=".8"/><stop offset="100%" stop-color="#ffd9a0" stop-opacity="0"/></radialGradient>
    <radialGradient id="sunGlow"><stop offset="0%" stop-color="#ffffff" stop-opacity="1"/><stop offset="22%" stop-color="#fff6da" stop-opacity=".8"/><stop offset="52%" stop-color="#ffdf9d" stop-opacity=".38"/><stop offset="100%" stop-color="#ffdf9d" stop-opacity="0"/></radialGradient>
    <radialGradient id="moonGlow"><stop offset="0%" stop-color="#dce6f7" stop-opacity=".5"/><stop offset="100%" stop-color="#dce6f7" stop-opacity="0"/></radialGradient>

    <clipPath id="frame"><rect x="0" y="34" width="1000" height="212"/></clipPath>
    <filter id="soft" x="-40%" y="-300%" width="180%" height="700%"><feGaussianBlur stdDeviation="5"/></filter>
    <filter id="grain"><feTurbulence type="fractalNoise" baseFrequency="0.9" numOctaves="2" seed="7"/><feColorMatrix type="saturate" values="0"/></filter>

    <g id="lamp">
      <circle cx="0" cy="-16" r="15" fill="url(#lampGlow)"><animate attributeName="r" values="15;17;15" dur="5s" repeatCount="indefinite"/></circle>
      <rect x="-1" y="-14" width="2" height="16" fill="#0a0f1c"/>
      <circle cx="0" cy="-15" r="2.4" fill="#ffe8bd"/>
    </g>

    <!-- 圆冠树 / 针叶树 -->
    <g id="tree1"><rect x="-1.6" y="-9" width="3.2" height="10" fill="#2f4a2c"/><ellipse cx="0" cy="-15" rx="11" ry="9.5" fill="#356b3b"/><ellipse cx="-3" cy="-18" rx="7" ry="6" fill="#3f7f44"/></g>
    <g id="tree2"><rect x="-1.4" y="-8" width="2.8" height="9" fill="#2b452a"/><path d="M0 -30 L8 -12 L-8 -12 Z" fill="#2d5f35"/><path d="M0 -24 L9.5 -6 L-9.5 -6 Z" fill="#357038"/></g>
  </defs>

  <rect width="1000" height="280" fill="#0b0f13"/>

  <g clip-path="url(#frame)">
    <rect x="0" y="34" width="1000" height="212" fill="url(#sky)"/>
    <rect x="0" y="34" width="1000" height="142" fill="url(#zenith)"/>

    <!-- 星（只在左边的夜里） -->
    <g fill="#e6ecf5">
      <circle cx="58"  cy="60" r="1.3" opacity=".8"><animate attributeName="opacity" values=".2;.9;.2" dur="3.6s" repeatCount="indefinite"/></circle>
      <circle cx="132" cy="88" r="1"   opacity=".6"><animate attributeName="opacity" values=".75;.15;.75" dur="4.4s" repeatCount="indefinite"/></circle>
      <circle cx="196" cy="52" r="1.4" opacity=".75"><animate attributeName="opacity" values=".3;.95;.3" dur="2.9s" repeatCount="indefinite"/></circle>
      <circle cx="248" cy="94" r="1"   opacity=".5"><animate attributeName="opacity" values=".6;.12;.6" dur="5.1s" repeatCount="indefinite"/></circle>
      <circle cx="300" cy="64" r="1.1" opacity=".4"><animate attributeName="opacity" values=".15;.55;.15" dur="3.2s" repeatCount="indefinite"/></circle>
      <circle cx="352" cy="46" r="1"   opacity=".25"><animate attributeName="opacity" values=".3;.08;.3" dur="4.7s" repeatCount="indefinite"/></circle>
    </g>

    <!-- 月亮（夜的那头） -->
    <g>
      <circle cx="112" cy="76" r="40" fill="url(#moonGlow)"/>
      <circle cx="112" cy="76" r="13" fill="#f2f6ff"/>
      <circle cx="107" cy="72" r="2.6" fill="#c8d3e8" opacity=".7"/>
      <circle cx="116" cy="81" r="1.8" fill="#c8d3e8" opacity=".6"/>
    </g>

    <!-- 太阳（昼的那头） -->
    <g>
      <circle cx="806" cy="80" r="100" fill="url(#sunGlow)">
        <animate attributeName="r" values="100;112;100" dur="8s" repeatCount="indefinite"/>
      </circle>
      <circle cx="806" cy="80" r="27" fill="#fffbe8"/>
      <circle cx="806" cy="80" r="19" fill="#ffffff"/>
    </g>

    <!-- 放射光束 -->
    <g fill="#fff4cf" opacity=".13">
      <animateTransform attributeName="transform" type="rotate" from="0 806 80" to="360 806 80" dur="140s" repeatCount="indefinite"/>
      <path d="M806 80 L1000 44 L1000 92 Z"/>
      <path d="M806 80 L980 200 L936 232 Z"/>
      <path d="M806 80 L640 208 L604 168 Z"/>
      <path d="M806 80 L616 30 L648 -8 Z"/>
      <path d="M806 80 L836 -110 L884 -96 Z"/>
      <path d="M806 80 L700 -84 L740 -104 Z"/>
    </g>

    <!-- 云：左边细而暗，右边厚而白 -->
    <g opacity=".22" fill="#cbd6ee" filter="url(#soft)">
      <animateTransform attributeName="transform" type="translate" from="0 0" to="-460 0" dur="74s" repeatCount="indefinite"/>
      <ellipse cx="90"  cy="104" rx="105" ry="3.4"/><ellipse cx="280" cy="126" rx="80" ry="2.8"/>
      <ellipse cx="550" cy="104" rx="105" ry="3.4"/><ellipse cx="740" cy="126" rx="80" ry="2.8"/>
      <ellipse cx="1010" cy="104" rx="105" ry="3.4"/><ellipse cx="1200" cy="126" rx="80" ry="2.8"/>
    </g>
    <g opacity=".8" fill="#ffffff" filter="url(#soft)">
      <animateTransform attributeName="transform" type="translate" from="0 0" to="-380 0" dur="96s" repeatCount="indefinite"/>
      <g><ellipse cx="700" cy="88" rx="30" ry="11"/><ellipse cx="722" cy="82" rx="22" ry="14"/><ellipse cx="744" cy="90" rx="26" ry="10"/></g>
      <g><ellipse cx="900" cy="118" rx="26" ry="9"/><ellipse cx="918" cy="112" rx="19" ry="12"/><ellipse cx="936" cy="119" rx="22" ry="8"/></g>
      <g><ellipse cx="1080" cy="88" rx="30" ry="11"/><ellipse cx="1102" cy="82" rx="22" ry="14"/><ellipse cx="1124" cy="90" rx="26" ry="10"/></g>
      <g><ellipse cx="1280" cy="118" rx="26" ry="9"/><ellipse cx="1298" cy="112" rx="19" ry="12"/><ellipse cx="1316" cy="119" rx="22" ry="8"/></g>
    </g>

    <!-- 远山：一条色带从夜蓝走到晨蓝 -->
    <path d="M-20 170 Q 100 132 220 156 T 450 142 Q 590 116 730 150 T 1020 136 L1020 186 L-20 186 Z"
          fill="url(#ridgeFar)" opacity=".55"/>

    <!-- 城市（夜的一侧） -->
    <g fill="#04070f">
      <rect x="16"  y="150" width="26" height="30"/><rect x="48"  y="132" width="20" height="48"/>
      <rect x="74"  y="156" width="30" height="24"/><rect x="110" y="118" width="24" height="62"/>
      <rect x="140" y="144" width="18" height="36"/><rect x="176" y="106" width="30" height="74"/>
      <rect x="212" y="134" width="22" height="46"/><rect x="240" y="152" width="28" height="28"/>
      <rect x="284" y="120" width="26" height="60"/><rect x="316" y="142" width="20" height="38"/>
      <rect x="342" y="156" width="34" height="24"/><rect x="384" y="148" width="22" height="32"/>
    </g>
    <g fill="#ffd08a">
      <rect x="53"  y="140" width="3" height="4" opacity=".8"/>
      <rect x="60"  y="152" width="3" height="4" opacity=".5"><animate attributeName="opacity" values=".5;.95;.5" dur="6s" repeatCount="indefinite"/></rect>
      <rect x="116" y="126" width="3" height="4" opacity=".7"/>
      <rect x="124" y="140" width="3" height="4" opacity=".45"><animate attributeName="opacity" values=".9;.3;.9" dur="7.5s" repeatCount="indefinite"/></rect>
      <rect x="116" y="158" width="3" height="4" opacity=".6"/>
      <rect x="182" y="114" width="3" height="4" opacity=".8"><animate attributeName="opacity" values=".3;.9;.3" dur="5.2s" repeatCount="indefinite"/></rect>
      <rect x="192" y="130" width="3" height="4" opacity=".55"/>
      <rect x="182" y="148" width="3" height="4" opacity=".7"/>
      <rect x="194" y="162" width="3" height="4" opacity=".4"><animate attributeName="opacity" values=".85;.25;.85" dur="8.3s" repeatCount="indefinite"/></rect>
      <rect x="290" y="128" width="3" height="4" opacity=".7"/>
      <rect x="298" y="144" width="3" height="4" opacity=".45"><animate attributeName="opacity" values=".4;.9;.4" dur="6.7s" repeatCount="indefinite"/></rect>
      <rect x="290" y="160" width="3" height="4" opacity=".55"/>
      <rect x="22"  y="158" width="3" height="4" opacity=".6"/>
      <rect x="32"  y="166" width="3" height="4" opacity=".35"><animate attributeName="opacity" values=".35;.85;.35" dur="7.1s" repeatCount="indefinite"/></rect>
      <rect x="80"  y="162" width="3" height="4" opacity=".5"/>
      <rect x="92"  y="170" width="3" height="4" opacity=".4"/>
      <rect x="146" y="152" width="3" height="4" opacity=".55"><animate attributeName="opacity" values=".9;.35;.9" dur="6.2s" repeatCount="indefinite"/></rect>
      <rect x="218" y="142" width="3" height="4" opacity=".6"/>
      <rect x="226" y="158" width="3" height="4" opacity=".4"/>
      <rect x="246" y="160" width="3" height="4" opacity=".5"><animate attributeName="opacity" values=".25;.75;.25" dur="8.8s" repeatCount="indefinite"/></rect>
      <rect x="322" y="150" width="3" height="4" opacity=".45"/>
      <rect x="350" y="164" width="3" height="4" opacity=".5"/>
      <rect x="390" y="156" width="3" height="4" opacity=".4"><animate attributeName="opacity" values=".7;.2;.7" dur="5.6s" repeatCount="indefinite"/></rect>
    </g>
    <g stroke="#03060d" stroke-width="2.5" fill="none">
      <path d="M150 180 L150 94 M126 98 L192 98 M150 94 L150 86"/>
      <path d="M262 180 L262 108 M242 112 L312 112 M262 108 L262 100"/>
    </g>
    <circle cx="150" cy="84" r="2.4" fill="#ff5a4a"><animate attributeName="opacity" values="1;1;0;0" dur="2s" calcMode="discrete" repeatCount="indefinite"/></circle>
    <circle cx="262" cy="98" r="2.4" fill="#ff5a4a"><animate attributeName="opacity" values="0;0;1;1" dur="2.6s" calcMode="discrete" repeatCount="indefinite"/></circle>

    <!-- 近山：城市那头是石头色，走到右边变成绿的 -->
    <path d="M-20 184 Q 90 158 200 178 Q 320 200 430 176 Q 520 156 600 168 Q 700 182 790 158 Q 890 132 1020 162 L1020 200 L-20 200 Z"
          fill="url(#ridgeNear)"/>

    <!-- 白天那侧的绿丘与树林 -->
    <path d="M470 186 Q 580 162 690 180 Q 810 200 900 172 Q 960 154 1020 168 L1020 200 L470 200 Z" fill="#4a9350"/>
    <path d="M470 186 Q 580 162 690 180 Q 810 200 900 172 Q 960 154 1020 168 L1020 174 Q 960 160 900 178 Q 810 206 690 186 Q 580 168 470 192 Z" fill="#7cc96b" opacity=".55"/>
    <g>
      <use xlink:href="#tree2" x="612" y="182"/><use xlink:href="#tree1" x="646" y="184"/>
      <use xlink:href="#tree2" x="686" y="186"/><use xlink:href="#tree1" x="726" y="188"/>
      <use xlink:href="#tree2" x="836" y="180"/><use xlink:href="#tree1" x="874" y="176"/>
      <use xlink:href="#tree2" x="920" y="172"/><use xlink:href="#tree1" x="962" y="174"/>
    </g>

    <!-- 桥：从城市这头横过江去 -->
    <rect x="-10" y="176" width="560" height="5" fill="#232c48"/>
    <g stroke="#37415f" stroke-width="2" fill="none">
      <path d="M10 181 Q 90 196 170 181"/><path d="M170 181 Q 250 196 330 181"/><path d="M330 181 Q 410 196 490 181"/>
    </g>
    <rect x="-10" y="174" width="560" height="1.6" fill="#cfe0f0" opacity=".5"/>
    <g><use xlink:href="#lamp" x="40" y="176"/><use xlink:href="#lamp" x="120" y="176"/>
       <use xlink:href="#lamp" x="200" y="176"/><use xlink:href="#lamp" x="280" y="176"/>
       <use xlink:href="#lamp" x="360" y="176"/><use xlink:href="#lamp" x="440" y="176"/></g>

    <!-- 江：左边映着灯，右边映着天和树 -->
    <rect x="0" y="181" width="1000" height="34" fill="url(#riverG)"/>
    <g fill="#ffcf8a">
      <rect x="39"  y="183" width="2.5" height="26" opacity=".3"><animate attributeName="opacity" values=".14;.42;.14" dur="3.1s" repeatCount="indefinite"/></rect>
      <rect x="119" y="183" width="2.5" height="30" opacity=".26"><animate attributeName="opacity" values=".4;.12;.4" dur="4.3s" repeatCount="indefinite"/></rect>
      <rect x="199" y="183" width="2.5" height="24" opacity=".3"><animate attributeName="opacity" values=".16;.44;.16" dur="2.7s" repeatCount="indefinite"/></rect>
      <rect x="279" y="183" width="2.5" height="28" opacity=".24"><animate attributeName="opacity" values=".42;.14;.42" dur="3.8s" repeatCount="indefinite"/></rect>
      <rect x="359" y="183" width="2.5" height="26" opacity=".28"><animate attributeName="opacity" values=".15;.4;.15" dur="4.9s" repeatCount="indefinite"/></rect>
    </g>
    <g fill="#8fd9a0">
      <rect x="619" y="183" width="3" height="20" opacity=".3"><animate attributeName="opacity" values=".14;.4;.14" dur="3.5s" repeatCount="indefinite"/></rect>
      <rect x="692" y="183" width="3" height="24" opacity=".26"><animate attributeName="opacity" values=".38;.12;.38" dur="4.6s" repeatCount="indefinite"/></rect>
      <rect x="842" y="183" width="3" height="22" opacity=".3"><animate attributeName="opacity" values=".16;.42;.16" dur="3.0s" repeatCount="indefinite"/></rect>
      <rect x="926" y="183" width="3" height="26" opacity=".24"><animate attributeName="opacity" values=".4;.14;.4" dur="4.1s" repeatCount="indefinite"/></rect>
    </g>
    <g fill="#ffffff">
      <ellipse cx="742" cy="190" rx="7" ry="1.2" opacity=".5"><animate attributeName="opacity" values=".2;.8;.2" dur="2.4s" repeatCount="indefinite"/></ellipse>
      <ellipse cx="800" cy="197" rx="9" ry="1.4" opacity=".45"><animate attributeName="opacity" values=".75;.15;.75" dur="3.1s" repeatCount="indefinite"/></ellipse>
      <ellipse cx="864" cy="188" rx="6" ry="1.1" opacity=".5"><animate attributeName="opacity" values=".25;.85;.25" dur="2.7s" repeatCount="indefinite"/></ellipse>
      <ellipse cx="912" cy="203" rx="10" ry="1.5" opacity=".4"><animate attributeName="opacity" values=".7;.2;.7" dur="3.6s" repeatCount="indefinite"/></ellipse>
      <ellipse cx="968" cy="193" rx="7" ry="1.2" opacity=".5"><animate attributeName="opacity" values=".3;.9;.3" dur="2.2s" repeatCount="indefinite"/></ellipse>
    </g>
    <g stroke="#a9c6dd" stroke-width="1" fill="none" opacity=".22">
      <path d="M0 196 q 40 -3 80 0 t 80 0 t 80 0 t 80 0 t 80 0 t 80 0 t 80 0 t 80 0 t 80 0 t 80 0 t 80 0 t 80 0"/>
      <path d="M0 206 q 50 -3 100 0 t 100 0 t 100 0 t 100 0 t 100 0 t 100 0 t 100 0 t 100 0 t 100 0 t 100 0"/>
    </g>

    <!-- 近岸：柏油走到草地 -->
    <rect x="0" y="215" width="1000" height="31" fill="url(#bankG)"/>
    <rect x="0" y="215" width="1000" height="1.5" fill="#2b3a4a" opacity=".7"/>
    <rect x="0" y="229" width="1000" height="1" fill="#101828" opacity=".5"/>

    <!-- 城市那头的树影与路灯 -->
    <g fill="#050912"><ellipse cx="26" cy="196" rx="40" ry="26"/><rect x="22" y="198" width="6" height="22"/></g>
    <g><use xlink:href="#lamp" x="176" y="224"/><use xlink:href="#lamp" x="396" y="224"/></g>

    <!-- 白天那头的草与花 -->
    <g stroke="#6cbf63" stroke-width="1.6" fill="none" stroke-linecap="round" opacity=".85">
      <path d="M596 244 q 2 -8 6 -11 M604 244 q -1 -7 2 -10 M640 244 q 3 -9 7 -12 M648 244 q -1 -8 2 -11"/>
      <path d="M700 244 q 2 -8 6 -11 M708 244 q -1 -7 2 -10 M760 244 q 3 -9 7 -12 M768 244 q -1 -8 2 -11"/>
      <path d="M830 244 q 2 -8 6 -11 M838 244 q -1 -7 2 -10 M900 244 q 3 -9 7 -12 M908 244 q -1 -8 2 -11"/>
      <path d="M960 244 q 2 -8 6 -11 M968 244 q -1 -7 2 -10"/>
    </g>
    <g>
      <circle cx="668" cy="236" r="2" fill="#f7e07a"/><circle cx="786" cy="238" r="2" fill="#f2f2f2"/>
      <circle cx="874" cy="235" r="2" fill="#f0a0c0"/><circle cx="944" cy="238" r="2" fill="#f7e07a"/>
    </g>

    <!-- 白天的鸟 -->
    <g stroke="#3d5a6a" stroke-width="1.8" fill="none" stroke-linecap="round" opacity=".65">
      <animateTransform attributeName="transform" type="translate" from="0 0" to="-560 -30" dur="40s" repeatCount="indefinite"/>
      <path d="M880 106 l7 -5 l7 5"/><path d="M910 96 l6 -4 l6 4"/><path d="M1140 112 l7 -5 l7 5"/><path d="M1170 102 l6 -4 l6 4"/>
    </g>

    <!-- 骑车的人 + 包里的猫：从夜里的城骑向白天的旷野 -->
    <g transform="translate(430 0)">
      <animateTransform attributeName="transform" type="translate" from="-520 0" to="660 0" dur="26s" repeatCount="indefinite" additive="sum"/>
      <g transform="translate(0 238)" fill="#05080f">
        <animateTransform attributeName="transform" type="translate" values="0 0;0 -1.6;0 0" dur="1.1s" repeatCount="indefinite" additive="sum"/>
        <!-- 自行车 -->
        <g stroke="#05080f" stroke-width="2.2" fill="none">
          <circle cx="-17" cy="0" r="8.5"/><circle cx="17" cy="0" r="8.5"/>
          <path d="M-17 0 L-2 -13 L11 -13 L17 0 M-2 -13 L-3 -1 M11 -13 L13.5 -16"/>
          <path d="M8 -16 L15 -16"/>
        </g>
        <!-- 远侧的腿（错半拍，做出纵深） -->
        <path d="M-4 -14 L-1 -8 L-7 -1" stroke="#05080f" stroke-width="2.2" fill="none"
              stroke-linecap="round" stroke-linejoin="round" opacity=".5">
          <animate attributeName="d" dur=".85s" repeatCount="indefinite" values="
            M-4 -14 L-1 -8 L-7 -1;
            M-4 -14 L1 -10 L-3 -5;
            M-4 -14 L2 -8 L1 -1;
            M-4 -14 L0 -7 L-3 3;
            M-4 -14 L-1 -8 L-7 -1"/>
        </path>
        <!-- 挎包 -->
        <path d="M-15 -24 q 9 -4 13 1 l-1 10 q -8 3 -13 -1 z"/>
        <!-- 猫：头、耳、口鼻、尾巴 -->
        <g>
          <path d="M-15 -16 q -7 0 -7.5 -6.5 q -0.4 -5 3.6 -6.5" stroke="#05080f" stroke-width="2.4"
                fill="none" stroke-linecap="round">
            <animateTransform attributeName="transform" type="rotate" dur="2.3s" repeatCount="indefinite"
              values="0 -15 -16; 12 -15 -16; -5 -15 -16; 0 -15 -16"/>
          </path>
          <circle cx="-10" cy="-28.2" r="4.3"/>
          <path d="M-13.6 -30.3 L-15 -35.8 L-10.4 -32.1 Z"/>
          <path d="M-6.4 -30.3 L-5 -35.8 L-9.6 -32.1 Z"/>
          <path d="M-5.9 -27.6 l3.6 -1.1 l-0.5 2.2 z"/>
        </g>
        <!-- 近侧的腿 -->
        <path d="M-4 -14 L2 -8 L1 -1" stroke="#05080f" stroke-width="2.9" fill="none"
              stroke-linecap="round" stroke-linejoin="round">
          <animate attributeName="d" dur=".85s" repeatCount="indefinite" values="
            M-4 -14 L2 -8 L1 -1;
            M-4 -14 L0 -7 L-3 3;
            M-4 -14 L-1 -8 L-7 -1;
            M-4 -14 L1 -10 L-3 -5;
            M-4 -14 L2 -8 L1 -1"/>
        </path>
        <!-- 躯干 / 手臂 / 头 -->
        <path d="M-4 -15 L7 -25.5" stroke="#05080f" stroke-width="5.2" fill="none" stroke-linecap="round"/>
        <path d="M7 -25.5 L13.5 -16.5" stroke="#05080f" stroke-width="2.6" fill="none" stroke-linecap="round"/>
        <circle cx="10.5" cy="-29" r="4.4"/>
        <path d="M7 -30.9 q -2.8 -0.5 -1.9 -2.1 q 2.3 -1.5 5.5 -0.6 z"/>
      </g>
    </g>

    <rect x="0" y="34" width="1000" height="212" filter="url(#grain)" opacity=".045"/>
    <rect x="0" y="34" width="560" height="212" fill="url(#scrim)"/>
  </g>

  <!-- 文字 -->
  <g font-family="'PingFang SC','Hiragino Sans GB','Microsoft YaHei','Noto Sans CJK SC',sans-serif"
     font-size="44" font-weight="700" fill="#f7edda">
    <text x="62" y="118">白</text><text x="110" y="118">日</text><text x="158" y="118">梦</text>
    <text x="206" y="118">想</text><text x="254" y="118">家</text>
  </g>
  <g font-family="ui-monospace,'SF Mono',Menlo,Consolas,monospace">
    <text x="64" y="146" font-size="13.5" fill="#e8b48c" letter-spacing="3.4">THE SECRET LIFE OF PathGao</text>
    <text x="64" y="172" font-size="13" fill="#c6d2e4">$ 睡觉 · 做梦 · 相爱 · 饿了就去吃</text>
    <rect x="64" y="182" width="9" height="2.5" fill="#e8b48c">
      <animate attributeName="opacity" values="1;1;0;0" dur="1.05s" calcMode="discrete" repeatCount="indefinite"/>
    </rect>
    <text x="936" y="60" font-size="12" fill="#22475e" letter-spacing="1.6" text-anchor="end" opacity=".7">Sep.99</text>
  </g>

  <!-- 齿孔片基 -->
  <g fill="#12181d"><rect x="0" y="0" width="1000" height="34"/><rect x="0" y="246" width="1000" height="34"/></g>
  <g fill="#e9e3d6" opacity=".82">
    <rect x="14"  y="10" width="22" height="14" rx="3"/><rect x="14"  y="256" width="22" height="14" rx="3"/>
    <rect x="62"  y="10" width="22" height="14" rx="3"/><rect x="62"  y="256" width="22" height="14" rx="3"/>
    <rect x="110" y="10" width="22" height="14" rx="3"/><rect x="110" y="256" width="22" height="14" rx="3"/>
    <rect x="158" y="10" width="22" height="14" rx="3"/><rect x="158" y="256" width="22" height="14" rx="3"/>
    <rect x="206" y="10" width="22" height="14" rx="3"/><rect x="206" y="256" width="22" height="14" rx="3"/>
    <rect x="254" y="10" width="22" height="14" rx="3"/><rect x="254" y="256" width="22" height="14" rx="3"/>
    <rect x="302" y="10" width="22" height="14" rx="3"/><rect x="302" y="256" width="22" height="14" rx="3"/>
    <rect x="350" y="10" width="22" height="14" rx="3"/><rect x="350" y="256" width="22" height="14" rx="3"/>
    <rect x="398" y="10" width="22" height="14" rx="3"/><rect x="398" y="256" width="22" height="14" rx="3"/>
    <rect x="446" y="10" width="22" height="14" rx="3"/><rect x="446" y="256" width="22" height="14" rx="3"/>
    <rect x="494" y="10" width="22" height="14" rx="3"/><rect x="494" y="256" width="22" height="14" rx="3"/>
    <rect x="542" y="10" width="22" height="14" rx="3"/><rect x="542" y="256" width="22" height="14" rx="3"/>
    <rect x="590" y="10" width="22" height="14" rx="3"/><rect x="590" y="256" width="22" height="14" rx="3"/>
    <rect x="638" y="10" width="22" height="14" rx="3"/><rect x="638" y="256" width="22" height="14" rx="3"/>
    <rect x="686" y="10" width="22" height="14" rx="3"/><rect x="686" y="256" width="22" height="14" rx="3"/>
    <rect x="734" y="10" width="22" height="14" rx="3"/><rect x="734" y="256" width="22" height="14" rx="3"/>
    <rect x="782" y="10" width="22" height="14" rx="3"/><rect x="782" y="256" width="22" height="14" rx="3"/>
    <rect x="830" y="10" width="22" height="14" rx="3"/><rect x="830" y="256" width="22" height="14" rx="3"/>
    <rect x="878" y="10" width="22" height="14" rx="3"/><rect x="878" y="256" width="22" height="14" rx="3"/>
    <rect x="926" y="10" width="22" height="14" rx="3"/><rect x="926" y="256" width="22" height="14" rx="3"/>
    <rect x="974" y="10" width="22" height="14" rx="3"/><rect x="974" y="256" width="22" height="14" rx="3"/>
  </g>
</svg>
